<svg width="63" height="55" viewBox="0 0 63 55" fill="none" xmlns="http://www.w3.org/2000/svg">
<path d="M61.0879 47.2754C62.9512 50.5879 60.5703 54.625 56.7402 54.625H7.15625C3.32617 54.625 0.945312 50.4844 2.80859 47.2754L27.6523 4.10938C29.5156 0.796875 34.3809 0.900391 36.2441 4.10938L61.0879 47.2754ZM32 38.2695C29.3086 38.2695 27.2383 40.4434 27.2383 43.0312C27.2383 45.7227 29.3086 47.793 32 47.793C34.5879 47.793 36.7617 45.7227 36.7617 43.0312C36.7617 40.4434 34.5879 38.2695 32 38.2695ZM27.4453 21.1895L28.1699 35.2676C28.2734 35.9922 28.791 36.4062 29.4121 36.4062H34.4844C35.1055 36.4062 35.623 35.9922 35.7266 35.2676L36.4512 21.1895C36.5547 20.4648 35.9336 19.8438 35.209 19.8438H28.6875C27.9629 19.8438 27.3418 20.4648 27.4453 21.1895Z" fill="#FFCC00"/>
</svg>
