<svg width="86" height="89" viewBox="0 0 86 89" fill="none" xmlns="http://www.w3.org/2000/svg">
<path fill-rule="evenodd" clip-rule="evenodd" d="M41.4841 0.528869C22.7022 1.66865 6.7738 14.7165 1.99227 32.5507C-3.11795 51.6115 4.62669 71.1497 21.2934 81.5884C38.1628 92.1539 60.0501 89.5718 74.4389 76.0596C79.4518 71.3524 88.5611 59.5172 84.4786 52.4896C81.9725 48.1782 76.0202 47.7808 72.3563 50.8854C70.6597 52.3236 69.6622 54.1764 68.6018 56.0856C65.5422 61.5874 61.1351 66.5668 56.1541 70.4138C53.9039 72.1496 47.2696 76.5436 44.605 76.5322C42.0564 76.5215 35.9012 71.6934 33.7451 69.9682C30.4885 67.3616 27.3104 64.3298 24.5672 61.186C18.7742 54.5476 13.1334 45.5299 14.1096 36.3617C15.1824 26.2917 24.9433 19.2216 34.4377 24.7235C38.1506 26.8747 40.9551 31.4625 44.9966 31.9817C50.0831 32.6358 52.653 28.2361 55.8548 25.2108C63.2397 18.2356 73.0669 16.1449 81.3086 23.0752C86.6151 27.5378 79.267 17.7425 78.6546 16.956C76.0112 13.5571 72.8788 10.7199 69.3793 8.22364C61.1057 2.32358 51.5647 -0.0827226 41.4841 0.528869Z" fill="#047A8E"/>
</svg>
