<svg width="100" height="25" viewBox="0 0 100 25" fill="none" xmlns="http://www.w3.org/2000/svg">
<path fill-rule="evenodd" clip-rule="evenodd" d="M9.53268 0.0215031C5.17094 0.286195 1.47179 3.31621 0.361389 7.45801C-0.825424 11.8845 0.973038 16.4221 4.8436 18.8463C8.76132 21.2998 13.8445 20.7002 17.186 17.5621C18.3501 16.4692 20.4656 13.7204 19.5173 12.0886C18.9356 11.0873 17.5533 10.995 16.7024 11.7158C16.3083 12.05 16.0767 12.4803 15.8302 12.9236C15.1198 14.2016 14.0965 15.3578 12.9396 16.251C12.4171 16.6544 10.8761 17.6746 10.2576 17.6719C9.66554 17.6695 8.23641 16.5484 7.7356 16.1478C6.97904 15.5423 6.24107 14.8381 5.60395 14.108C4.2588 12.5667 2.94876 10.4722 3.17559 8.3433C3.42445 6.00444 5.69137 4.36259 7.89634 5.64027C8.75857 6.13971 9.4098 7.20536 10.3484 7.32584C11.5297 7.47763 12.1263 6.45604 12.8701 5.75352C14.5849 4.1337 16.8673 3.64803 18.7814 5.25752C20.0137 6.29392 18.3071 4.01908 18.1649 3.8363C17.5509 3.04705 16.8236 2.38824 16.0109 1.8086C14.0896 0.438332 11.8736 -0.120653 9.53268 0.0215031Z" fill="white"/>
<path d="M23.3268 6.22714C23.5526 5.9449 23.7945 5.69087 24.0527 5.46921C24.3108 5.2472 24.601 5.06167 24.9197 4.9085C25.2381 4.75533 25.5971 4.6383 26.0002 4.55776C26.4036 4.47721 26.8714 4.4366 27.4035 4.4366C28.307 4.4366 29.1335 4.60595 29.8794 4.94877C30.6256 5.2916 31.2668 5.75937 31.8031 6.35209C32.3394 6.94481 32.7548 7.64251 33.0491 8.44106C33.3434 9.23926 33.4887 10.0943 33.4887 11.0057V19.2198C33.4887 19.4938 33.4198 19.6996 33.279 19.8366C33.1376 19.9739 32.9562 20.0424 32.7386 20.0424H31.8434C31.545 20.0424 31.3553 19.9818 31.2706 19.861C31.1859 19.7399 31.1415 19.5382 31.1415 19.2559V11.0057C31.1415 10.5218 31.061 10.0258 30.8958 9.52151C30.7302 9.0176 30.4845 8.56187 30.1578 8.15055C29.8312 7.73923 29.424 7.40466 28.9359 7.14651C28.4478 6.88836 27.8833 6.75928 27.2462 6.75928C26.7867 6.75928 26.3227 6.84017 25.8553 7.00539C25.3875 7.1706 24.9679 7.41671 24.5931 7.73923C24.2179 8.06209 23.9116 8.46102 23.6775 8.93705C23.4438 9.41274 23.3268 9.95727 23.3268 10.57V19.5099C23.3268 19.8648 23.1495 20.0424 22.7946 20.0424H21.5486C21.1693 20.0424 20.98 19.8648 20.98 19.5099V0.638317C20.98 0.476886 21.0323 0.34781 21.1373 0.251089C21.2419 0.154368 21.3669 0.105835 21.5121 0.105835H22.7702C22.9395 0.105835 23.0769 0.158154 23.1777 0.263136C23.2782 0.368118 23.3268 0.493064 23.3268 0.638317V6.22714Z" fill="white"/>
<path d="M46.2704 16.5223C46.3431 16.4576 46.4236 16.3974 46.5083 16.3409C46.5929 16.2845 46.6776 16.2562 46.7664 16.2562C46.8872 16.2562 47.0043 16.3289 47.1172 16.4738C47.2786 16.6917 47.4115 16.8693 47.5123 17.0063C47.6132 17.1433 47.6937 17.252 47.7584 17.3329C47.8228 17.4214 47.8713 17.4861 47.9037 17.5264C47.9439 17.5749 47.976 17.6231 48.0004 17.6757C48.0245 17.7281 48.0365 17.7886 48.0365 17.853C48.0365 17.9418 48.0045 18.0385 47.9357 18.1394C47.8672 18.2402 47.7464 18.3573 47.577 18.498C47.2301 18.7724 46.8711 19.0223 46.4962 19.2443C46.121 19.4659 45.7259 19.6594 45.3146 19.8208C44.9033 19.986 44.472 20.1113 44.0162 20.1998C43.5605 20.2886 43.0766 20.333 42.5685 20.333C41.8509 20.333 41.1573 20.2363 40.4878 20.0466C39.8183 19.8573 39.1895 19.5871 38.5968 19.236C38.004 18.8853 37.4636 18.466 36.9756 17.9821C36.4875 17.4981 36.0641 16.9619 35.7096 16.3729C35.3544 15.7802 35.0804 15.1514 34.8866 14.474C34.6932 13.8004 34.5964 13.0989 34.5964 12.3729C34.5964 11.647 34.6894 10.9414 34.8708 10.264C35.0522 9.58662 35.3103 8.95329 35.6449 8.36057C35.9794 7.77198 36.3828 7.23571 36.8585 6.75176C37.3346 6.26781 37.8708 5.84823 38.4636 5.50162C39.0563 5.15466 39.6975 4.88859 40.387 4.69928C41.0767 4.50962 41.8023 4.4129 42.5685 4.4129C43.1736 4.4129 43.7743 4.4814 44.3711 4.61839C44.968 4.75573 45.5404 4.95709 46.089 5.21937C46.6373 5.48131 47.1537 5.80417 47.6335 6.19519C48.1133 6.58241 48.5408 7.02575 48.9198 7.52588C49.4357 8.21944 49.8192 9.01387 50.0691 9.90088C50.3189 10.7882 50.436 11.8085 50.4198 12.9657C50.4198 13.3446 50.2422 13.5343 49.8877 13.5343H37.137C37.274 14.1793 37.516 14.7762 37.8588 15.3248C38.2016 15.8731 38.6129 16.3488 39.0928 16.7564C39.5726 17.1636 40.1047 17.4819 40.6936 17.7119C41.2822 17.9418 41.8911 18.0585 42.5203 18.0585C42.9637 18.0585 43.3671 18.0144 43.7257 17.9298C44.0847 17.8451 44.4114 17.7322 44.7057 17.5907C45.0003 17.4499 45.2702 17.2885 45.5204 17.1071C45.7703 16.9257 46.0123 16.7402 46.2463 16.5464L46.2704 16.5223ZM39.6411 7.57028C39.0281 7.9816 38.4997 8.49791 38.0564 9.12263C37.6127 9.74771 37.3101 10.4371 37.149 11.1875H48.0851C47.9963 10.518 47.7908 9.90914 47.4641 9.36082C47.1375 8.81216 46.7262 8.34439 46.2339 7.95751C45.7421 7.57028 45.1896 7.26772 44.5728 7.05397C43.9557 6.84057 43.3148 6.73559 42.6532 6.73559C42.129 6.73559 41.613 6.80408 41.1008 6.94107C40.5887 7.07841 40.1006 7.28803 39.6411 7.57028Z" fill="white"/>
<path d="M64.9226 18.0021C64.229 18.7118 63.4225 19.2684 62.499 19.6756C61.5797 20.0828 60.5835 20.2845 59.511 20.2845C58.7933 20.2845 58.0956 20.1878 57.422 19.9981C56.7488 19.8088 56.1158 19.5386 55.5269 19.1875C54.9383 18.8368 54.402 18.4216 53.918 17.9377C53.43 17.4537 53.0149 16.9134 52.6638 16.3206C52.313 15.7279 52.0428 15.0946 51.8535 14.4213C51.6639 13.7477 51.5671 13.0504 51.5671 12.3244C51.5671 11.5985 51.6639 10.897 51.8535 10.2234C52.0428 9.55016 52.313 8.92095 52.6638 8.33237C53.0149 7.74344 53.43 7.20717 53.918 6.72322C54.402 6.23927 54.9383 5.82416 55.5269 5.4772C56.1158 5.13059 56.7446 4.86039 57.4141 4.67074C58.0836 4.48142 58.7851 4.38849 59.511 4.38849C60.5835 4.38849 61.5797 4.59019 62.499 4.99738C63.4225 5.40079 64.229 5.95702 64.9226 6.66677V5.18704C64.9226 4.83217 65.0998 4.65456 65.4547 4.65456H66.7007C67.08 4.65456 67.2693 4.83217 67.2693 5.18704V24.1798C67.2693 24.3413 67.217 24.47 67.112 24.5671C67.0074 24.6638 66.8825 24.712 66.7372 24.712H65.4791C65.3098 24.712 65.1766 24.6596 65.0757 24.555C64.9749 24.45 64.9226 24.3251 64.9226 24.1798V18.0021ZM65.0434 12.3286C65.0434 11.5744 64.8985 10.8485 64.608 10.1632C64.3178 9.4734 63.9227 8.86864 63.4225 8.35646C62.9224 7.84016 62.3379 7.42918 61.6643 7.12249C60.9911 6.81615 60.2731 6.66298 59.5151 6.66298C58.7569 6.66298 58.0471 6.81615 57.3818 7.12249C56.7164 7.42918 56.1357 7.84016 55.6397 8.35646C55.1438 8.86864 54.7527 9.4734 54.4664 10.1632C54.18 10.8485 54.0351 11.5744 54.0351 12.3286C54.0351 13.0786 54.18 13.8004 54.4664 14.4939C54.7527 15.1875 55.1438 15.7964 55.6397 16.3244C56.1357 16.8528 56.7164 17.2724 57.3818 17.5866C58.0471 17.9012 58.7569 18.0585 59.5151 18.0585C60.2731 18.0585 60.9911 17.9012 61.6643 17.5866C62.3379 17.2724 62.9224 16.8528 63.4225 16.3244C63.9227 15.7964 64.3178 15.1875 64.608 14.4939C64.8985 13.8004 65.0434 13.0786 65.0434 12.3286Z" fill="white"/>
<path d="M70.7672 12.6023C70.7672 13.3685 70.8801 14.0824 71.1018 14.7436C71.3238 15.4048 71.6504 15.9776 72.0817 16.4653C72.5134 16.9534 73.0376 17.3365 73.6585 17.6146C74.2795 17.893 74.9892 18.0342 75.7878 18.0342C76.6424 18.0342 77.3886 17.893 78.0258 17.6108C78.6629 17.3282 79.1909 16.9413 79.6063 16.4532C80.0218 15.9655 80.3323 15.3928 80.5378 14.7315C80.7436 14.07 80.8444 13.3602 80.8444 12.6023V2.59769C80.8444 2.45278 80.9009 2.32749 81.0097 2.22285C81.1184 2.11787 81.2516 2.06555 81.4131 2.06555H82.5741C82.7276 2.06555 82.8687 2.11374 82.9978 2.21081C83.1265 2.30753 83.1912 2.4366 83.1912 2.59769V12.9369C83.1912 14.0259 82.9978 15.0258 82.6106 15.9332C82.2233 16.8405 81.6953 17.6187 81.0217 18.2679C80.3484 18.917 79.5619 19.4251 78.6629 19.7882C77.7635 20.151 76.8038 20.3324 75.7878 20.3324C74.7713 20.3324 73.8158 20.139 72.9205 19.7517C72.0253 19.3649 71.2429 18.8324 70.5696 18.1591C69.896 17.4855 69.3639 16.6993 68.9767 15.8041C68.5898 14.9088 68.396 13.9533 68.396 12.9369V2.59769C68.396 2.47687 68.4445 2.35985 68.5371 2.24282C68.6301 2.12613 68.7509 2.06555 68.9044 2.06555H70.1986C70.3197 2.06555 70.4447 2.11787 70.5738 2.22285C70.7028 2.32749 70.7672 2.45278 70.7672 2.59769V12.6023Z" fill="white"/>
<path d="M86.6446 6.66622C87.3382 5.95647 88.1447 5.3999 89.0682 4.99683C89.9875 4.58964 90.9837 4.38794 92.0562 4.38794C92.7821 4.38794 93.4836 4.48053 94.1531 4.67019C94.8225 4.8595 95.4514 5.1297 96.0403 5.47665C96.6289 5.82327 97.1652 6.23872 97.6491 6.72267C98.1372 7.20662 98.5523 7.74289 98.9034 8.33147C99.2542 8.9204 99.5244 9.54926 99.7137 10.2229C99.9033 10.8961 100 11.598 100 12.3239C100 13.0495 99.9033 13.7472 99.7137 14.4208C99.5244 15.094 99.2542 15.727 98.9034 16.3197C98.5523 16.9128 98.1372 17.4532 97.6491 17.9368C97.1652 18.4208 96.6289 18.8362 96.0403 19.187C95.4514 19.5377 94.8184 19.8079 94.1452 19.9975C93.4716 20.1872 92.7739 20.2839 92.0562 20.2839C90.9837 20.2839 89.9875 20.0822 89.0682 19.675C88.1447 19.2675 87.3382 18.7113 86.6446 18.0015V24.1793C86.6446 24.3242 86.5961 24.4495 86.4956 24.5541C86.3947 24.6591 86.2574 24.7114 86.0881 24.7114H84.83C84.6847 24.7114 84.5598 24.6632 84.4552 24.5662C84.3502 24.4694 84.2979 24.3404 84.2979 24.1793V5.18615C84.2979 4.83162 84.4872 4.65401 84.8665 4.65401H86.1125C86.4674 4.65401 86.6446 4.83162 86.6446 5.18615V6.66622ZM86.5238 12.3277C86.5238 13.0777 86.6687 13.7995 86.9592 14.4931C87.2494 15.1866 87.6449 15.7955 88.1447 16.3239C88.6448 16.8522 89.2296 17.2715 89.8987 17.5861C90.5682 17.9007 91.2859 18.058 92.0521 18.058C92.8103 18.058 93.5239 17.9007 94.1892 17.5861C94.8546 17.2715 95.4352 16.8522 95.9312 16.3239C96.4272 15.7955 96.8186 15.1866 97.105 14.4931C97.391 13.7995 97.5321 13.0777 97.5321 12.3277C97.5321 11.5735 97.391 10.8479 97.105 10.1623C96.8186 9.47285 96.4272 8.86809 95.9312 8.35591C95.4352 7.83961 94.8546 7.42828 94.1892 7.12194C93.5239 6.81526 92.8103 6.66209 92.0521 6.66209C91.2859 6.66209 90.5682 6.81526 89.8987 7.12194C89.2296 7.42828 88.6448 7.83961 88.1447 8.35591C87.6449 8.86809 87.2494 9.47285 86.9592 10.1623C86.6687 10.8479 86.5238 11.5735 86.5238 12.3277Z" fill="white"/>
</svg>
